<mxfile host="app.diagrams.net" modified="2023-10-09T02:19:37.859Z" agent="Mozilla/5.0 (Windows NT 10.0; Win64; x64; rv:109.0) Gecko/20100101 Firefox/118.0" etag="W9GSm5Jvw2dV4ZBhagmA" version="22.0.4" type="github">
  <diagram id="C5RBs43oDa-KdzZeNtuy" name="Page-1">
    <mxGraphModel dx="880" dy="3977" grid="1" gridSize="10" guides="1" tooltips="1" connect="1" arrows="1" fold="1" page="1" pageScale="1" pageWidth="827" pageHeight="1169" math="0" shadow="0">
      <root>
        <mxCell id="WIyWlLk6GJQsqaUBKTNV-0" />
        <mxCell id="WIyWlLk6GJQsqaUBKTNV-1" parent="WIyWlLk6GJQsqaUBKTNV-0" />
        <mxCell id="TaXEV6-V9wcQLdi60Mpc-6" value="Menebak" style="rounded=1;whiteSpace=wrap;html=1;absoluteArcSize=1;arcSize=14;strokeWidth=2;" vertex="1" parent="WIyWlLk6GJQsqaUBKTNV-1">
          <mxGeometry x="330" y="-3190" width="100" height="100" as="geometry" />
        </mxCell>
        <mxCell id="TaXEV6-V9wcQLdi60Mpc-10" style="edgeStyle=orthogonalEdgeStyle;rounded=0;orthogonalLoop=1;jettySize=auto;html=1;exitX=1;exitY=0.5;exitDx=0;exitDy=0;exitPerimeter=0;" edge="1" parent="WIyWlLk6GJQsqaUBKTNV-1" source="TaXEV6-V9wcQLdi60Mpc-8">
          <mxGeometry relative="1" as="geometry">
            <mxPoint x="640" y="-3010" as="targetPoint" />
          </mxGeometry>
        </mxCell>
        <mxCell id="TaXEV6-V9wcQLdi60Mpc-11" value="yes" style="edgeLabel;html=1;align=center;verticalAlign=middle;resizable=0;points=[];" vertex="1" connectable="0" parent="TaXEV6-V9wcQLdi60Mpc-10">
          <mxGeometry x="-0.0424" y="1" relative="1" as="geometry">
            <mxPoint as="offset" />
          </mxGeometry>
        </mxCell>
        <mxCell id="TaXEV6-V9wcQLdi60Mpc-12" style="edgeStyle=orthogonalEdgeStyle;rounded=0;orthogonalLoop=1;jettySize=auto;html=1;exitX=0.5;exitY=1;exitDx=0;exitDy=0;exitPerimeter=0;entryX=0.5;entryY=0;entryDx=0;entryDy=0;entryPerimeter=0;" edge="1" parent="WIyWlLk6GJQsqaUBKTNV-1" source="TaXEV6-V9wcQLdi60Mpc-8" target="TaXEV6-V9wcQLdi60Mpc-22">
          <mxGeometry relative="1" as="geometry">
            <mxPoint x="370" y="-2840" as="targetPoint" />
          </mxGeometry>
        </mxCell>
        <mxCell id="TaXEV6-V9wcQLdi60Mpc-13" value="No" style="edgeLabel;html=1;align=center;verticalAlign=middle;resizable=0;points=[];" vertex="1" connectable="0" parent="TaXEV6-V9wcQLdi60Mpc-12">
          <mxGeometry x="-0.2531" y="1" relative="1" as="geometry">
            <mxPoint as="offset" />
          </mxGeometry>
        </mxCell>
        <mxCell id="TaXEV6-V9wcQLdi60Mpc-8" value="tebakan = angka" style="strokeWidth=2;html=1;shape=mxgraph.flowchart.decision;whiteSpace=wrap;" vertex="1" parent="WIyWlLk6GJQsqaUBKTNV-1">
          <mxGeometry x="300" y="-3060" width="140" height="100" as="geometry" />
        </mxCell>
        <mxCell id="TaXEV6-V9wcQLdi60Mpc-9" style="edgeStyle=orthogonalEdgeStyle;rounded=0;orthogonalLoop=1;jettySize=auto;html=1;exitX=0.5;exitY=1;exitDx=0;exitDy=0;entryX=0.5;entryY=0;entryDx=0;entryDy=0;entryPerimeter=0;" edge="1" parent="WIyWlLk6GJQsqaUBKTNV-1" source="TaXEV6-V9wcQLdi60Mpc-6" target="TaXEV6-V9wcQLdi60Mpc-8">
          <mxGeometry relative="1" as="geometry" />
        </mxCell>
        <mxCell id="TaXEV6-V9wcQLdi60Mpc-15" style="edgeStyle=orthogonalEdgeStyle;rounded=0;orthogonalLoop=1;jettySize=auto;html=1;exitX=0.5;exitY=1;exitDx=0;exitDy=0;exitPerimeter=0;" edge="1" parent="WIyWlLk6GJQsqaUBKTNV-1" source="TaXEV6-V9wcQLdi60Mpc-14">
          <mxGeometry relative="1" as="geometry">
            <mxPoint x="380" y="-3370" as="targetPoint" />
          </mxGeometry>
        </mxCell>
        <mxCell id="TaXEV6-V9wcQLdi60Mpc-14" value="start" style="strokeWidth=2;html=1;shape=mxgraph.flowchart.terminator;whiteSpace=wrap;" vertex="1" parent="WIyWlLk6GJQsqaUBKTNV-1">
          <mxGeometry x="330" y="-3490" width="100" height="60" as="geometry" />
        </mxCell>
        <mxCell id="TaXEV6-V9wcQLdi60Mpc-19" style="edgeStyle=orthogonalEdgeStyle;rounded=0;orthogonalLoop=1;jettySize=auto;html=1;exitX=0.5;exitY=1;exitDx=0;exitDy=0;entryX=0.5;entryY=0;entryDx=0;entryDy=0;" edge="1" parent="WIyWlLk6GJQsqaUBKTNV-1" source="TaXEV6-V9wcQLdi60Mpc-16" target="TaXEV6-V9wcQLdi60Mpc-18">
          <mxGeometry relative="1" as="geometry" />
        </mxCell>
        <mxCell id="TaXEV6-V9wcQLdi60Mpc-16" value="Angka 1-100" style="shape=parallelogram;html=1;strokeWidth=2;perimeter=parallelogramPerimeter;whiteSpace=wrap;rounded=1;arcSize=12;size=0.23;" vertex="1" parent="WIyWlLk6GJQsqaUBKTNV-1">
          <mxGeometry x="330" y="-3390" width="100" height="60" as="geometry" />
        </mxCell>
        <mxCell id="TaXEV6-V9wcQLdi60Mpc-21" style="edgeStyle=orthogonalEdgeStyle;rounded=0;orthogonalLoop=1;jettySize=auto;html=1;exitX=0.5;exitY=1;exitDx=0;exitDy=0;entryX=0.5;entryY=0;entryDx=0;entryDy=0;" edge="1" parent="WIyWlLk6GJQsqaUBKTNV-1" source="TaXEV6-V9wcQLdi60Mpc-18" target="TaXEV6-V9wcQLdi60Mpc-6">
          <mxGeometry relative="1" as="geometry" />
        </mxCell>
        <mxCell id="TaXEV6-V9wcQLdi60Mpc-18" value="tebakan" style="shape=parallelogram;html=1;strokeWidth=2;perimeter=parallelogramPerimeter;whiteSpace=wrap;rounded=1;arcSize=12;size=0.23;" vertex="1" parent="WIyWlLk6GJQsqaUBKTNV-1">
          <mxGeometry x="330" y="-3300" width="100" height="60" as="geometry" />
        </mxCell>
        <mxCell id="TaXEV6-V9wcQLdi60Mpc-28" style="edgeStyle=orthogonalEdgeStyle;rounded=0;orthogonalLoop=1;jettySize=auto;html=1;exitX=0.5;exitY=1;exitDx=0;exitDy=0;exitPerimeter=0;" edge="1" parent="WIyWlLk6GJQsqaUBKTNV-1" source="TaXEV6-V9wcQLdi60Mpc-22" target="TaXEV6-V9wcQLdi60Mpc-26">
          <mxGeometry relative="1" as="geometry" />
        </mxCell>
        <mxCell id="TaXEV6-V9wcQLdi60Mpc-22" value="False\Salah" style="strokeWidth=2;html=1;shape=mxgraph.flowchart.decision;whiteSpace=wrap;" vertex="1" parent="WIyWlLk6GJQsqaUBKTNV-1">
          <mxGeometry x="300" y="-2900" width="140" height="100" as="geometry" />
        </mxCell>
        <mxCell id="TaXEV6-V9wcQLdi60Mpc-23" value="Menang" style="strokeWidth=2;html=1;shape=mxgraph.flowchart.stored_data;whiteSpace=wrap;" vertex="1" parent="WIyWlLk6GJQsqaUBKTNV-1">
          <mxGeometry x="640" y="-3040" width="100" height="60" as="geometry" />
        </mxCell>
        <mxCell id="TaXEV6-V9wcQLdi60Mpc-34" style="edgeStyle=orthogonalEdgeStyle;rounded=0;orthogonalLoop=1;jettySize=auto;html=1;exitX=1;exitY=0.5;exitDx=0;exitDy=0;entryX=1;entryY=0.5;entryDx=0;entryDy=0;" edge="1" parent="WIyWlLk6GJQsqaUBKTNV-1" source="TaXEV6-V9wcQLdi60Mpc-25" target="TaXEV6-V9wcQLdi60Mpc-6">
          <mxGeometry relative="1" as="geometry">
            <Array as="points">
              <mxPoint x="810" y="-2840" />
              <mxPoint x="810" y="-3140" />
            </Array>
          </mxGeometry>
        </mxCell>
        <mxCell id="TaXEV6-V9wcQLdi60Mpc-25" value="angka ku lebih besar" style="rounded=1;whiteSpace=wrap;html=1;absoluteArcSize=1;arcSize=14;strokeWidth=2;" vertex="1" parent="WIyWlLk6GJQsqaUBKTNV-1">
          <mxGeometry x="640" y="-2890" width="100" height="100" as="geometry" />
        </mxCell>
        <mxCell id="TaXEV6-V9wcQLdi60Mpc-29" style="edgeStyle=orthogonalEdgeStyle;rounded=0;orthogonalLoop=1;jettySize=auto;html=1;exitX=0.5;exitY=1;exitDx=0;exitDy=0;" edge="1" parent="WIyWlLk6GJQsqaUBKTNV-1" source="TaXEV6-V9wcQLdi60Mpc-26" target="TaXEV6-V9wcQLdi60Mpc-27">
          <mxGeometry relative="1" as="geometry" />
        </mxCell>
        <mxCell id="TaXEV6-V9wcQLdi60Mpc-26" value="angka ku lebih kecil" style="rounded=1;whiteSpace=wrap;html=1;absoluteArcSize=1;arcSize=14;strokeWidth=2;" vertex="1" parent="WIyWlLk6GJQsqaUBKTNV-1">
          <mxGeometry x="320" y="-2740" width="100" height="100" as="geometry" />
        </mxCell>
        <mxCell id="TaXEV6-V9wcQLdi60Mpc-27" value="finish" style="strokeWidth=2;html=1;shape=mxgraph.flowchart.terminator;whiteSpace=wrap;" vertex="1" parent="WIyWlLk6GJQsqaUBKTNV-1">
          <mxGeometry x="320" y="-2580" width="100" height="60" as="geometry" />
        </mxCell>
        <mxCell id="TaXEV6-V9wcQLdi60Mpc-32" style="edgeStyle=orthogonalEdgeStyle;rounded=0;orthogonalLoop=1;jettySize=auto;html=1;exitX=1;exitY=0.5;exitDx=0;exitDy=0;exitPerimeter=0;entryX=0.1;entryY=0.4;entryDx=0;entryDy=0;entryPerimeter=0;" edge="1" parent="WIyWlLk6GJQsqaUBKTNV-1" source="TaXEV6-V9wcQLdi60Mpc-22" target="TaXEV6-V9wcQLdi60Mpc-25">
          <mxGeometry relative="1" as="geometry" />
        </mxCell>
        <mxCell id="TaXEV6-V9wcQLdi60Mpc-33" style="edgeStyle=orthogonalEdgeStyle;rounded=0;orthogonalLoop=1;jettySize=auto;html=1;exitX=0.93;exitY=0.5;exitDx=0;exitDy=0;exitPerimeter=0;entryX=1;entryY=0.5;entryDx=0;entryDy=0;entryPerimeter=0;" edge="1" parent="WIyWlLk6GJQsqaUBKTNV-1" source="TaXEV6-V9wcQLdi60Mpc-23" target="TaXEV6-V9wcQLdi60Mpc-27">
          <mxGeometry relative="1" as="geometry">
            <Array as="points">
              <mxPoint x="790" y="-3010" />
              <mxPoint x="790" y="-2550" />
            </Array>
          </mxGeometry>
        </mxCell>
        <mxCell id="TaXEV6-V9wcQLdi60Mpc-35" style="edgeStyle=orthogonalEdgeStyle;rounded=0;orthogonalLoop=1;jettySize=auto;html=1;exitX=0;exitY=0.5;exitDx=0;exitDy=0;entryX=-0.01;entryY=0.44;entryDx=0;entryDy=0;entryPerimeter=0;" edge="1" parent="WIyWlLk6GJQsqaUBKTNV-1" source="TaXEV6-V9wcQLdi60Mpc-26" target="TaXEV6-V9wcQLdi60Mpc-6">
          <mxGeometry relative="1" as="geometry">
            <Array as="points">
              <mxPoint x="260" y="-2690" />
              <mxPoint x="260" y="-3146" />
            </Array>
          </mxGeometry>
        </mxCell>
      </root>
    </mxGraphModel>
  </diagram>
</mxfile>
